<svg viewBox="0 0 420 420" xmlns="http://www.w3.org/2000/svg" xmlns:svg="http://www.w3.org/2000/svg" preserveAspectRatio="xMidYMid meet" version="1.0">
 <g class="layer">
  <title>Layer 1</title>
  <ellipse cx="208.67" cy="210.78" fill="#edf2f7" id="svg_4" rx="203" ry="198" stroke="#edf2f7"/>
  <g fill="#000000" id="svg_1" transform="matrix(0.100651 0 0 -0.0909658 -2.64836 32.1574)">
   <path d="m638.51,-719.99c-15,-17 -17,-35 -14,-120c1,-54 7,-103 11,-108c5,-4 291,-10 635,-13c616,-5 628,-6 694,-28c175,-59 296,-200 336,-390c31,-151 -13,-315 -117,-439c-47,-57 -71,-75 -145,-113l-88,-45l-289,-3l-289,-3l0,-130l0,-129l214,0l214,0l54,-62c29,-35 96,-117 149,-183c210,-265 313,-393 542,-672l239,-292l169,1c93,0 169,3 169,7c0,8 -25,40 -95,125c-28,34 -90,110 -139,170l-87,110l48,12c331,85 634,387 764,759c49,142 63,242 64,435c0,228 -25,349 -107,515c-141,286 -400,493 -727,583l-96,27l-1046,3c-1028,2 -1046,2 -1063,-17zm1978,-241c181,-17 291,-55 427,-146c73,-49 176,-152 226,-225c139,-203 182,-485 118,-764c-64,-275 -276,-536 -520,-643c-91,-39 -170,-62 -215,-62c-39,0 -55,15 -164,155c-88,112 -336,413 -350,425c-20,16 -21,40 -1,40c27,0 156,90 219,153c80,81 150,194 189,305c29,83 31,94 31,252c1,157 0,169 -28,244c-31,87 -82,180 -127,230c-16,19 -29,36 -29,39c0,9 113,7 224,-3z" fill="#36454f" id="svg_2" stroke="#edf2f7"/>
   <path d="m1060.51,-1991.99c-17,-9 -18,-54 -18,-719c0,-822 -17,-730 132,-730c81,0 97,3 116,20l22,21l0,693c0,659 -1,694 -18,709c-15,14 -39,17 -118,17c-54,0 -107,-5 -116,-11z" fill="#36454f" id="svg_3" stroke="#edf2f7"/>
  </g>
 </g>
</svg>